<svg width="334" height="40" viewBox="0 0 334 40" fill="none" xmlns="http://www.w3.org/2000/svg">
<path d="M0.977539 39V35.9238L4.95703 35.2402V7.2373L0.977539 6.55371V3.45312H13.7461V6.55371L9.7666 7.2373V19.5176H26.7588V7.2373L22.7793 6.55371V3.45312H35.5479V6.55371L31.5684 7.2373V35.2402L35.5479 35.9238V39H22.7793V35.9238L26.7588 35.2402V23.3018H9.7666V35.2402L13.7461 35.9238V39H0.977539ZM46.877 39.5127C44.1263 39.5127 42.0348 38.8454 40.6025 37.5107C39.1702 36.1598 38.4541 34.2637 38.4541 31.8223C38.4541 29.3158 39.4795 27.3057 41.5303 25.792C43.5811 24.262 46.4294 23.4971 50.0752 23.4971H54.7871V20.9092C54.7871 19.3141 54.2988 18.0771 53.3223 17.1982C52.362 16.3193 51.0029 15.8799 49.2451 15.8799C48.1383 15.8799 47.1781 16.0182 46.3643 16.2949C45.5505 16.5553 44.8099 16.9215 44.1426 17.3936L43.6299 21.0801H39.9189V15.0254C42.3115 13.0723 45.4447 12.0957 49.3184 12.0957C52.5247 12.0957 55.0394 12.8607 56.8623 14.3906C58.6852 15.9206 59.5967 18.1097 59.5967 20.958V33.6777C59.5967 34.0195 59.5967 34.3532 59.5967 34.6787C59.613 35.0042 59.6374 35.3298 59.6699 35.6553L62.2334 35.9238V39H55.3242C55.0475 37.6654 54.8766 36.4528 54.8115 35.3623C53.8838 36.5505 52.7201 37.5433 51.3203 38.3408C49.9368 39.1221 48.4557 39.5127 46.877 39.5127ZM47.585 35.4844C49.18 35.4844 50.6367 35.1019 51.9551 34.3369C53.2734 33.5719 54.2174 32.6523 54.7871 31.5781V26.793H49.9043C47.6908 26.793 46.0306 27.3219 44.9238 28.3799C43.8171 29.4378 43.2637 30.6178 43.2637 31.9199C43.2637 34.2962 44.7041 35.4844 47.585 35.4844ZM64.9199 39V35.9238L68.8994 35.2402V16.3682L64.9199 15.6846V12.584H73.1963L73.6113 15.9531L73.6602 16.417C74.4089 15.0661 75.3285 14.0081 76.4189 13.2432C77.5257 12.4782 78.7871 12.0957 80.2031 12.0957C80.7077 12.0957 81.2204 12.1445 81.7412 12.2422C82.2783 12.3236 82.6608 12.4049 82.8887 12.4863L82.2539 16.9541L78.9092 16.7588C77.6396 16.6774 76.5736 16.9704 75.7109 17.6377C74.8483 18.2887 74.181 19.1676 73.709 20.2744V35.2402L77.6885 35.9238V39H64.9199ZM94.7061 39.5127C92.5576 39.5127 90.7103 38.9837 89.1641 37.9258C87.6341 36.8516 86.4622 35.3623 85.6484 33.458C84.8346 31.5537 84.4277 29.332 84.4277 26.793V26.2803C84.4277 23.4482 84.8346 20.9661 85.6484 18.834C86.4622 16.7018 87.6423 15.0498 89.1885 13.8779C90.7347 12.6898 92.5902 12.0957 94.7549 12.0957C96.3174 12.0957 97.6927 12.3887 98.8809 12.9746C100.085 13.5443 101.111 14.3743 101.957 15.4648V4.69824L97.9775 4.01465V0.914062H106.767V35.2402L110.746 35.9238V39H102.592L102.201 35.8506C100.443 38.292 97.945 39.5127 94.7061 39.5127ZM95.9268 35.6064C97.359 35.6064 98.5635 35.2809 99.54 34.6299C100.517 33.9788 101.322 33.0592 101.957 31.8711V19.6152C101.339 18.5085 100.533 17.6296 99.54 16.9785C98.5472 16.3275 97.359 16.002 95.9756 16.002C93.6807 16.002 91.9798 16.9541 90.873 18.8584C89.7826 20.7627 89.2373 23.2367 89.2373 26.2803V26.793C89.2373 29.446 89.7826 31.5781 90.873 33.1895C91.9635 34.8008 93.6481 35.6064 95.9268 35.6064ZM125.005 39.5127C122.612 39.5127 120.529 38.9593 118.755 37.8525C116.981 36.7295 115.605 35.1751 114.629 33.1895C113.652 31.2038 113.164 28.9089 113.164 26.3047V25.2793C113.164 22.7728 113.636 20.5267 114.58 18.541C115.524 16.5553 116.883 14.9847 118.657 13.8291C120.431 12.6735 122.547 12.0957 125.005 12.0957C127.137 12.0957 129.001 12.4456 130.596 13.1455C132.207 13.8454 133.558 14.8057 134.648 16.0264L134.771 22.374H131.011L130.181 17.7598C129.627 17.1901 128.936 16.7344 128.105 16.3926C127.275 16.0508 126.299 15.8799 125.176 15.8799C123.743 15.8799 122.482 16.3031 121.392 17.1494C120.317 17.9958 119.479 19.127 118.877 20.543C118.275 21.959 117.974 23.5378 117.974 25.2793V26.3047C117.974 29.2018 118.6 31.5049 119.854 33.2139C121.107 34.9066 122.816 35.7529 124.98 35.7529C126.608 35.7529 127.959 35.3053 129.033 34.4102C130.107 33.515 130.767 32.2861 131.011 30.7236H135.332L135.381 30.8701C135.299 32.3838 134.852 33.7998 134.038 35.1182C133.224 36.4365 132.061 37.5026 130.547 38.3164C129.049 39.1139 127.202 39.5127 125.005 39.5127ZM150.714 39.5127C148.272 39.5127 146.165 38.943 144.391 37.8037C142.633 36.6481 141.274 35.0612 140.313 33.043C139.353 31.0085 138.873 28.6891 138.873 26.085V25.5479C138.873 22.9437 139.353 20.6325 140.313 18.6143C141.274 16.5798 142.633 14.9847 144.391 13.8291C146.165 12.6735 148.256 12.0957 150.665 12.0957C153.106 12.0957 155.206 12.6735 156.964 13.8291C158.738 14.9847 160.105 16.5716 161.065 18.5898C162.026 20.6081 162.506 22.9274 162.506 25.5479V26.085C162.506 28.7054 162.026 31.0329 161.065 33.0674C160.105 35.0856 158.746 36.6644 156.988 37.8037C155.23 38.943 153.139 39.5127 150.714 39.5127ZM150.714 35.7529C152.993 35.7529 154.726 34.8415 155.914 33.0186C157.102 31.1956 157.696 28.8844 157.696 26.085V25.5479C157.696 23.6924 157.428 22.0404 156.891 20.5918C156.37 19.127 155.589 17.9795 154.547 17.1494C153.505 16.3031 152.211 15.8799 150.665 15.8799C149.135 15.8799 147.849 16.3031 146.808 17.1494C145.766 17.9795 144.985 19.127 144.464 20.5918C143.943 22.0404 143.683 23.6924 143.683 25.5479V26.085C143.683 28.8844 144.269 31.1956 145.44 33.0186C146.629 34.8415 148.386 35.7529 150.714 35.7529ZM165.168 39V35.9238L169.147 35.2402V16.3682L165.168 15.6846V12.584H173.444L173.859 15.9531L173.908 16.417C174.657 15.0661 175.576 14.0081 176.667 13.2432C177.774 12.4782 179.035 12.0957 180.451 12.0957C180.956 12.0957 181.468 12.1445 181.989 12.2422C182.526 12.3236 182.909 12.4049 183.137 12.4863L182.502 16.9541L179.157 16.7588C177.888 16.6774 176.822 16.9704 175.959 17.6377C175.096 18.2887 174.429 19.1676 173.957 20.2744V35.2402L177.937 35.9238V39H165.168ZM196.614 39.5127C194.173 39.5127 192.049 38.9593 190.242 37.8525C188.436 36.7295 187.036 35.1751 186.043 33.1895C185.066 31.2038 184.578 28.9089 184.578 26.3047V25.2305C184.578 22.724 185.091 20.486 186.116 18.5166C187.158 16.5309 188.533 14.9684 190.242 13.8291C191.967 12.6735 193.847 12.0957 195.882 12.0957C199.43 12.0957 202.116 13.1699 203.938 15.3184C205.778 17.4668 206.697 20.3314 206.697 23.9121V26.915H189.559L189.485 27.0371C189.534 29.5762 190.177 31.6676 191.414 33.3115C192.651 34.9391 194.384 35.7529 196.614 35.7529C198.242 35.7529 199.666 35.5251 200.887 35.0693C202.124 34.5973 203.19 33.9544 204.085 33.1406L205.965 36.2656C205.021 37.1771 203.768 37.9502 202.205 38.585C200.659 39.2035 198.795 39.5127 196.614 39.5127ZM189.705 23.1553H201.888V22.5205C201.888 20.6325 201.383 19.0537 200.374 17.7842C199.365 16.5146 197.868 15.8799 195.882 15.8799C194.271 15.8799 192.895 16.5635 191.756 17.9307C190.617 19.2816 189.917 20.9824 189.656 23.0332L189.705 23.1553ZM233.896 39.5127C231.732 39.5127 229.648 39.1953 227.646 38.5605C225.645 37.9258 223.732 36.9492 221.909 35.6309V28.0381H225.645L226.45 33.6289C227.508 34.2799 228.656 34.7845 229.893 35.1426C231.13 35.5007 232.464 35.6797 233.896 35.6797C236.322 35.6797 238.201 35.1426 239.536 34.0684C240.871 32.9779 241.538 31.5537 241.538 29.7959C241.538 28.1683 240.936 26.8174 239.731 25.7432C238.527 24.6689 236.379 23.7819 233.286 23.082C229.608 22.2357 226.8 20.9499 224.863 19.2246C222.926 17.4831 221.958 15.2939 221.958 12.6572C221.958 10.8018 222.446 9.1416 223.423 7.67676C224.416 6.21191 225.791 5.05632 227.549 4.20996C229.307 3.36361 231.357 2.94043 233.701 2.94043C236.191 2.94043 238.389 3.32292 240.293 4.08789C242.214 4.83659 243.792 5.74805 245.029 6.82227V13.9268H241.294L240.488 8.84863C239.756 8.2627 238.844 7.77441 237.754 7.38379C236.663 6.99316 235.312 6.79785 233.701 6.79785C231.634 6.79785 229.958 7.32682 228.672 8.38477C227.402 9.44271 226.768 10.8424 226.768 12.584C226.768 14.1139 227.378 15.3672 228.599 16.3438C229.819 17.304 231.935 18.1585 234.946 18.9072C238.69 19.835 241.522 21.2103 243.442 23.0332C245.379 24.8398 246.348 27.0778 246.348 29.7471C246.348 31.6514 245.835 33.3441 244.81 34.8252C243.784 36.29 242.336 37.4375 240.464 38.2676C238.608 39.0977 236.419 39.5127 233.896 39.5127ZM258.678 39.415C256.725 39.415 255.17 38.8454 254.015 37.7061C252.875 36.5505 252.306 34.7113 252.306 32.1885V16.1484H248.131V12.584H252.306V6.21191H257.115V12.584H262.853V16.1484H257.115V32.1885C257.115 33.458 257.368 34.3939 257.872 34.9961C258.377 35.5983 259.052 35.8994 259.898 35.8994C260.468 35.8994 261.103 35.8506 261.803 35.7529C262.503 35.639 263.048 35.5413 263.438 35.46L264.098 38.6094C263.398 38.821 262.535 39.0081 261.51 39.1709C260.501 39.3337 259.557 39.415 258.678 39.415ZM277.624 39.5127C275.183 39.5127 273.075 38.943 271.301 37.8037C269.543 36.6481 268.184 35.0612 267.224 33.043C266.263 31.0085 265.783 28.6891 265.783 26.085V25.5479C265.783 22.9437 266.263 20.6325 267.224 18.6143C268.184 16.5798 269.543 14.9847 271.301 13.8291C273.075 12.6735 275.166 12.0957 277.575 12.0957C280.017 12.0957 282.116 12.6735 283.874 13.8291C285.648 14.9847 287.015 16.5716 287.976 18.5898C288.936 20.6081 289.416 22.9274 289.416 25.5479V26.085C289.416 28.7054 288.936 31.0329 287.976 33.0674C287.015 35.0856 285.656 36.6644 283.898 37.8037C282.141 38.943 280.049 39.5127 277.624 39.5127ZM277.624 35.7529C279.903 35.7529 281.636 34.8415 282.824 33.0186C284.012 31.1956 284.606 28.8844 284.606 26.085V25.5479C284.606 23.6924 284.338 22.0404 283.801 20.5918C283.28 19.127 282.499 17.9795 281.457 17.1494C280.415 16.3031 279.121 15.8799 277.575 15.8799C276.045 15.8799 274.759 16.3031 273.718 17.1494C272.676 17.9795 271.895 19.127 271.374 20.5918C270.853 22.0404 270.593 23.6924 270.593 25.5479V26.085C270.593 28.8844 271.179 31.1956 272.351 33.0186C273.539 34.8415 275.297 35.7529 277.624 35.7529ZM292.078 39V35.9238L296.058 35.2402V16.3682L292.078 15.6846V12.584H300.354L300.77 15.9531L300.818 16.417C301.567 15.0661 302.487 14.0081 303.577 13.2432C304.684 12.4782 305.945 12.0957 307.361 12.0957C307.866 12.0957 308.379 12.1445 308.899 12.2422C309.437 12.3236 309.819 12.4049 310.047 12.4863L309.412 16.9541L306.067 16.7588C304.798 16.6774 303.732 16.9704 302.869 17.6377C302.007 18.2887 301.339 19.1676 300.867 20.2744V35.2402L304.847 35.9238V39H292.078ZM323.524 39.5127C321.083 39.5127 318.959 38.9593 317.152 37.8525C315.346 36.7295 313.946 35.1751 312.953 33.1895C311.977 31.2038 311.488 28.9089 311.488 26.3047V25.2305C311.488 22.724 312.001 20.486 313.026 18.5166C314.068 16.5309 315.443 14.9684 317.152 13.8291C318.878 12.6735 320.757 12.0957 322.792 12.0957C326.34 12.0957 329.026 13.1699 330.849 15.3184C332.688 17.4668 333.607 20.3314 333.607 23.9121V26.915H316.469L316.396 27.0371C316.444 29.5762 317.087 31.6676 318.324 33.3115C319.561 34.9391 321.295 35.7529 323.524 35.7529C325.152 35.7529 326.576 35.5251 327.797 35.0693C329.034 34.5973 330.1 33.9544 330.995 33.1406L332.875 36.2656C331.931 37.1771 330.678 37.9502 329.115 38.585C327.569 39.2035 325.705 39.5127 323.524 39.5127ZM316.615 23.1553H328.798V22.5205C328.798 20.6325 328.293 19.0537 327.284 17.7842C326.275 16.5146 324.778 15.8799 322.792 15.8799C321.181 15.8799 319.805 16.5635 318.666 17.9307C317.527 19.2816 316.827 20.9824 316.566 23.0332L316.615 23.1553Z" fill="white"/>
</svg>
