<svg width="221" height="72" viewBox="0 0 221 72" fill="none" xmlns="http://www.w3.org/2000/svg">
<path d="M0.546875 44.5298V42.8208L2.06055 42.5278V32.3227L0.546875 32.0298V30.311H6.43555V32.0298L4.91211 32.3227V36.4243H10.7129V32.3227L9.18945 32.0298V30.311H15.0781V32.0298L13.5547 32.3227V42.5278L15.0781 42.8208V44.5298H9.18945V42.8208L10.7129 42.5278V38.6216H4.91211V42.5278L6.43555 42.8208V44.5298H0.546875ZM51.3867 44.7348C50.3385 44.7348 49.3848 44.6176 48.5254 44.3833C47.666 44.1489 46.8197 43.742 45.9863 43.1626V39.7251H48.1934L48.4961 41.7466C48.7826 41.9939 49.1829 42.1958 49.6973 42.352C50.2181 42.5018 50.7812 42.5766 51.3867 42.5766C52.1615 42.5766 52.7539 42.4204 53.1641 42.1079C53.5742 41.7889 53.7793 41.3592 53.7793 40.8188C53.7793 40.311 53.584 39.8846 53.1934 39.5395C52.8092 39.188 52.1322 38.8624 51.1621 38.563C49.4759 38.0747 48.2194 37.4952 47.3926 36.8247C46.5658 36.1541 46.1523 35.2361 46.1523 34.0708C46.1523 33.3025 46.3639 32.6255 46.7871 32.0395C47.2168 31.4471 47.8092 30.9816 48.5645 30.643C49.3197 30.3045 50.1921 30.1287 51.1816 30.1157C52.2754 30.1027 53.2422 30.2329 54.082 30.5063C54.9284 30.7798 55.6576 31.1606 56.2695 31.6489V34.852H54.1309L53.7598 32.8989C53.5124 32.7426 53.1771 32.6059 52.7539 32.4887C52.3372 32.3716 51.862 32.313 51.3281 32.313C50.6445 32.313 50.0846 32.466 49.6484 32.7719C49.2122 33.0779 48.9941 33.5076 48.9941 34.061C48.9941 34.5363 49.196 34.9334 49.5996 35.2524C50.0098 35.5649 50.7617 35.8969 51.8555 36.2485C53.4245 36.6847 54.6126 37.2609 55.4199 37.977C56.2337 38.6932 56.6406 39.6339 56.6406 40.7993C56.6406 41.6131 56.4225 42.313 55.9863 42.8989C55.5501 43.4848 54.9349 43.9373 54.1406 44.2563C53.3529 44.5753 52.4349 44.7348 51.3867 44.7348Z" fill="black"/>
<path d="M23.9038 20.3311C23.9038 22.1337 19.2243 23.595 13.4519 23.595C7.67947 23.595 3 22.1337 3 20.3311C3 18.5286 7.67947 17.0673 13.4519 17.0673C19.2243 17.0673 23.9038 18.5286 23.9038 20.3311Z" fill="url(#paint0_linear)"/>
<g filter="url(#filter0_d)">
<mask id="path-3-inside-1" fill="white">
<path d="M38.3609 54.9864L13.0462 21.9631H11.6079L35.4842 57.0031L42.9636 63.3053L38.3609 54.9864Z"/>
</mask>
<path d="M13.0462 21.9631L16.2208 19.5296L15.02 17.9631H13.0462V21.9631ZM38.3609 54.9864L41.8609 53.0499L41.7167 52.7893L41.5355 52.5529L38.3609 54.9864ZM42.9636 63.3053L40.3861 66.3642L46.4636 61.3688L42.9636 63.3053ZM35.4842 57.0031L32.1787 59.2555L32.4875 59.7087L32.9068 60.062L35.4842 57.0031ZM11.6079 21.9631V17.9631H4.04196L8.30236 24.2155L11.6079 21.9631ZM9.87167 24.3966L35.1863 57.42L41.5355 52.5529L16.2208 19.5296L9.87167 24.3966ZM34.8609 56.9229L39.4636 65.2418L46.4636 61.3688L41.8609 53.0499L34.8609 56.9229ZM45.541 60.2464L38.0617 53.9442L32.9068 60.062L40.3861 66.3642L45.541 60.2464ZM38.7898 54.7507L14.9135 19.7107L8.30236 24.2155L32.1787 59.2555L38.7898 54.7507ZM11.6079 25.9631H13.0462V17.9631H11.6079V25.9631Z" fill="black" mask="url(#path-3-inside-1)"/>
</g>
<path d="M38.2993 21.9138C37.8192 23.6892 41.7036 26.0275 46.9754 27.1367C52.2472 28.2458 56.91 27.7057 57.3902 25.9304C57.8703 24.155 53.9859 21.8166 48.7141 20.7075C43.4423 19.5984 38.7794 20.1385 38.2993 21.9138Z" fill="url(#paint1_linear)"/>
<g filter="url(#filter1_d)">
<mask id="path-6-inside-2" fill="white">
<path d="M16.1911 50.9006L46.6138 26.1465L47.8894 26.4149L18.2555 53.2375L10.1009 57.4675L16.1911 50.9006Z"/>
</mask>
<path d="M46.6138 26.1465L44.1116 23.1687L45.7029 21.8739L47.6581 22.2852L46.6138 26.1465ZM16.1911 50.9006L13.2479 48.3361L13.4535 48.1144L13.6889 47.9229L16.1911 50.9006ZM10.1009 57.4675L11.8609 60.9323L7.15777 54.9029L10.1009 57.4675ZM18.2555 53.2375L20.9307 56.0668L20.5145 56.4435L20.0154 56.7024L18.2555 53.2375ZM47.8894 26.4149L48.9337 22.5536L56.2547 24.0938L50.5646 29.2441L47.8894 26.4149ZM49.116 29.1242L18.6933 53.8784L13.6889 47.9229L44.1116 23.1687L49.116 29.1242ZM19.1343 53.4652L13.0441 60.0321L7.15777 54.9029L13.2479 48.3361L19.1343 53.4652ZM8.34096 54.0026L16.4955 49.7727L20.0154 56.7024L11.8609 60.9323L8.34096 54.0026ZM15.5803 50.4082L45.2142 23.5856L50.5646 29.2441L20.9307 56.0668L15.5803 50.4082ZM46.8451 30.2761L45.5695 30.0078L47.6581 22.2852L48.9337 22.5536L46.8451 30.2761Z" fill="black" mask="url(#path-6-inside-2)"/>
</g>
<path d="M78.5469 41V39.291L80.0605 38.998V28.793L78.5469 28.5V26.7812H84.4355V28.5L82.9121 28.793V32.8945H88.7129V28.793L87.1895 28.5V26.7812H93.0781V28.5L91.5547 28.793V38.998L93.0781 39.291V41H87.1895V39.291L88.7129 38.998V35.0918H82.9121V38.998L84.4355 39.291V41H78.5469ZM97.7754 41.2051C96.7272 41.2051 95.8939 40.9251 95.2754 40.3652C94.6569 39.7988 94.3477 39.0306 94.3477 38.0605C94.3477 37.071 94.748 36.2637 95.5488 35.6387C96.3561 35.0137 97.541 34.7012 99.1035 34.7012H100.5V33.9199C100.5 33.4121 100.35 33.002 100.051 32.6895C99.7578 32.3704 99.3151 32.2109 98.7227 32.2109C98.4167 32.2109 98.14 32.25 97.8926 32.3281C97.6517 32.3997 97.4336 32.5039 97.2383 32.6406L97.0137 34.0371H94.9629L94.9238 31.293C95.4772 30.9805 96.0762 30.7266 96.7207 30.5312C97.3652 30.3359 98.0846 30.2383 98.8789 30.2383C100.259 30.2383 101.35 30.5605 102.15 31.2051C102.951 31.8496 103.352 32.7643 103.352 33.9492V38.3047C103.352 38.4479 103.352 38.5879 103.352 38.7246C103.358 38.8613 103.371 38.998 103.391 39.1348L104.494 39.291V41H100.959C100.887 40.8177 100.816 40.6224 100.744 40.4141C100.673 40.2057 100.62 39.9974 100.588 39.7891C100.249 40.2188 99.849 40.5638 99.3867 40.8242C98.931 41.0781 98.3939 41.2051 97.7754 41.2051ZM98.5371 39.0957C98.9342 39.0957 99.3086 39.0078 99.6602 38.832C100.018 38.6497 100.298 38.4121 100.5 38.1191V36.4492H99.0938C98.4688 36.4492 97.9935 36.5924 97.668 36.8789C97.349 37.1654 97.1895 37.5104 97.1895 37.9141C97.1895 38.2917 97.3066 38.5846 97.541 38.793C97.7819 38.9948 98.1139 39.0957 98.5371 39.0957ZM105.725 41V39.291L107.092 38.998V32.4453L105.578 32.1523V30.4336H109.748L109.855 31.7422L109.875 31.9766C110.396 30.8177 111.177 30.2383 112.219 30.2383C112.388 30.2383 112.57 30.2513 112.766 30.2773C112.967 30.3034 113.15 30.3424 113.312 30.3945L113.01 33.0215L111.594 32.9434C111.19 32.9238 110.861 32.9922 110.607 33.1484C110.36 33.3047 110.139 33.5293 109.943 33.8223V38.998L111.311 39.291V41H105.725ZM118.029 41.2051C117.189 41.2051 116.467 40.9902 115.861 40.5605C115.262 40.1243 114.803 39.5189 114.484 38.7441C114.165 37.9629 114.006 37.0514 114.006 36.0098V35.8047C114.006 34.6914 114.165 33.7181 114.484 32.8848C114.81 32.0514 115.272 31.4036 115.871 30.9414C116.47 30.4727 117.186 30.2383 118.02 30.2383C118.605 30.2383 119.113 30.3555 119.543 30.5898C119.979 30.8177 120.357 31.1432 120.676 31.5664V27.7773L119.152 27.4844V25.7656H123.527V38.998L124.895 39.291V41H121.057L120.842 39.7109C120.51 40.1992 120.113 40.5703 119.65 40.8242C119.188 41.0781 118.648 41.2051 118.029 41.2051ZM118.879 38.9883C119.667 38.9883 120.266 38.6595 120.676 38.002V33.5195C120.266 32.8099 119.673 32.4551 118.898 32.4551C118.182 32.4551 117.661 32.7643 117.336 33.3828C117.017 34.0013 116.857 34.8086 116.857 35.8047V36.0098C116.857 36.9342 117.014 37.6634 117.326 38.1973C117.639 38.7246 118.156 38.9883 118.879 38.9883ZM130.773 41.2051C129.758 41.2051 128.879 40.9772 128.137 40.5215C127.401 40.0658 126.835 39.4375 126.438 38.6367C126.04 37.8359 125.842 36.9147 125.842 35.873V35.5801C125.842 34.5449 126.044 33.627 126.447 32.8262C126.851 32.0189 127.421 31.3874 128.156 30.9316C128.892 30.4694 129.758 30.2383 130.754 30.2383C131.698 30.2383 132.515 30.388 133.205 30.6875C133.895 30.9805 134.455 31.3223 134.885 31.7129L134.865 34.7402H132.717L132.336 32.8555C132.18 32.6992 131.981 32.5723 131.74 32.4746C131.499 32.377 131.255 32.3281 131.008 32.3281C130.227 32.3281 129.644 32.6178 129.26 33.1973C128.882 33.7702 128.693 34.5645 128.693 35.5801V35.873C128.693 36.9603 128.898 37.7578 129.309 38.2656C129.719 38.7669 130.214 39.0176 130.793 39.0176C131.294 39.0176 131.695 38.8874 131.994 38.627C132.3 38.36 132.512 37.9857 132.629 37.5039H135.061L135.09 37.5625C134.921 38.6888 134.504 39.5775 133.84 40.2285C133.176 40.8796 132.154 41.2051 130.773 41.2051ZM141.408 41.2051C140.36 41.2051 139.462 40.9772 138.713 40.5215C137.971 40.0658 137.401 39.4342 137.004 38.627C136.607 37.8132 136.408 36.8789 136.408 35.8242V35.6191C136.408 34.571 136.607 33.6432 137.004 32.8359C137.401 32.0221 137.971 31.3874 138.713 30.9316C139.462 30.4694 140.354 30.2383 141.389 30.2383C142.43 30.2383 143.322 30.4661 144.064 30.9219C144.813 31.3776 145.386 32.0124 145.783 32.8262C146.18 33.6335 146.379 34.5645 146.379 35.6191V35.8242C146.379 36.8789 146.18 37.8132 145.783 38.627C145.386 39.4342 144.816 40.0658 144.074 40.5215C143.332 40.9772 142.443 41.2051 141.408 41.2051ZM141.408 39.0176C142.144 39.0176 142.681 38.7246 143.02 38.1387C143.365 37.5527 143.537 36.7812 143.537 35.8242V35.6191C143.537 34.6816 143.365 33.9167 143.02 33.3242C142.674 32.7318 142.131 32.4355 141.389 32.4355C140.646 32.4355 140.106 32.7318 139.768 33.3242C139.429 33.9167 139.26 34.6816 139.26 35.6191V35.8242C139.26 36.7878 139.429 37.5625 139.768 38.1484C140.106 38.7279 140.653 39.0176 141.408 39.0176ZM147.873 41V39.291L149.24 38.998V32.4453L147.727 32.1523V30.4336H151.896L152.004 31.7422L152.023 31.9766C152.544 30.8177 153.326 30.2383 154.367 30.2383C154.536 30.2383 154.719 30.2513 154.914 30.2773C155.116 30.3034 155.298 30.3424 155.461 30.3945L155.158 33.0215L153.742 32.9434C153.339 32.9238 153.01 32.9922 152.756 33.1484C152.508 33.3047 152.287 33.5293 152.092 33.8223V38.998L153.459 39.291V41H147.873ZM161.174 41.2051C160.158 41.2051 159.273 40.9837 158.518 40.541C157.769 40.0918 157.186 39.4766 156.77 38.6953C156.359 37.9141 156.154 37.0221 156.154 36.0195V35.6289C156.154 34.5807 156.35 33.653 156.74 32.8457C157.131 32.0319 157.681 31.3939 158.391 30.9316C159.107 30.4629 159.95 30.2318 160.92 30.2383C162.346 30.2383 163.436 30.6582 164.191 31.498C164.947 32.3314 165.324 33.5033 165.324 35.0137V36.5664H159.113L159.094 36.625C159.146 37.3216 159.377 37.8945 159.787 38.3438C160.197 38.793 160.78 39.0176 161.535 39.0176C162.056 39.0176 162.541 38.9525 162.99 38.8223C163.446 38.6855 163.889 38.487 164.318 38.2266L165.09 39.9844C164.654 40.3359 164.104 40.6289 163.439 40.8633C162.782 41.0911 162.027 41.2051 161.174 41.2051ZM159.133 34.6816H162.658V34.4277C162.658 33.7897 162.525 33.2852 162.258 32.9141C161.997 32.5365 161.568 32.3477 160.969 32.3477C160.396 32.3477 159.96 32.5658 159.66 33.002C159.361 33.4316 159.175 33.9753 159.104 34.6328L159.133 34.6816ZM177.277 41.2051C176.229 41.2051 175.275 41.0879 174.416 40.8535C173.557 40.6191 172.71 40.2122 171.877 39.6328V36.1953H174.084L174.387 38.2168C174.673 38.4642 175.074 38.666 175.588 38.8223C176.109 38.972 176.672 39.0469 177.277 39.0469C178.052 39.0469 178.645 38.8906 179.055 38.5781C179.465 38.2591 179.67 37.8294 179.67 37.2891C179.67 36.7812 179.475 36.3548 179.084 36.0098C178.7 35.6582 178.023 35.3327 177.053 35.0332C175.367 34.5449 174.11 33.9655 173.283 33.2949C172.456 32.6243 172.043 31.7064 172.043 30.541C172.043 29.7728 172.255 29.0957 172.678 28.5098C173.107 27.9173 173.7 27.4518 174.455 27.1133C175.21 26.7747 176.083 26.599 177.072 26.5859C178.166 26.5729 179.133 26.7031 179.973 26.9766C180.819 27.25 181.548 27.6309 182.16 28.1191V31.3223H180.021L179.65 29.3691C179.403 29.2129 179.068 29.0762 178.645 28.959C178.228 28.8418 177.753 28.7832 177.219 28.7832C176.535 28.7832 175.975 28.9362 175.539 29.2422C175.103 29.5482 174.885 29.9779 174.885 30.5312C174.885 31.0065 175.087 31.4036 175.49 31.7227C175.9 32.0352 176.652 32.3672 177.746 32.7188C179.315 33.1549 180.503 33.7311 181.311 34.4473C182.124 35.1634 182.531 36.1042 182.531 37.2695C182.531 38.0833 182.313 38.7832 181.877 39.3691C181.441 39.9551 180.826 40.4076 180.031 40.7266C179.243 41.0456 178.326 41.2051 177.277 41.2051ZM187.883 41.2051C186.9 41.2051 186.141 40.9349 185.607 40.3945C185.08 39.8542 184.816 38.998 184.816 37.8262V32.4355H183.361V30.4336H184.816V27.8457H187.658V30.4336H189.602V32.4355H187.658V37.8164C187.658 38.2266 187.743 38.5195 187.912 38.6953C188.088 38.8711 188.326 38.959 188.625 38.959C188.781 38.959 188.951 38.9492 189.133 38.9297C189.315 38.9036 189.471 38.8776 189.602 38.8516L189.846 40.9121C189.559 40.9967 189.243 41.0651 188.898 41.1172C188.553 41.1758 188.215 41.2051 187.883 41.2051ZM195.705 41.2051C194.657 41.2051 193.758 40.9772 193.01 40.5215C192.268 40.0658 191.698 39.4342 191.301 38.627C190.904 37.8132 190.705 36.8789 190.705 35.8242V35.6191C190.705 34.571 190.904 33.6432 191.301 32.8359C191.698 32.0221 192.268 31.3874 193.01 30.9316C193.758 30.4694 194.65 30.2383 195.686 30.2383C196.727 30.2383 197.619 30.4661 198.361 30.9219C199.11 31.3776 199.683 32.0124 200.08 32.8262C200.477 33.6335 200.676 34.5645 200.676 35.6191V35.8242C200.676 36.8789 200.477 37.8132 200.08 38.627C199.683 39.4342 199.113 40.0658 198.371 40.5215C197.629 40.9772 196.74 41.2051 195.705 41.2051ZM195.705 39.0176C196.441 39.0176 196.978 38.7246 197.316 38.1387C197.661 37.5527 197.834 36.7812 197.834 35.8242V35.6191C197.834 34.6816 197.661 33.9167 197.316 33.3242C196.971 32.7318 196.428 32.4355 195.686 32.4355C194.943 32.4355 194.403 32.7318 194.064 33.3242C193.726 33.9167 193.557 34.6816 193.557 35.6191V35.8242C193.557 36.7878 193.726 37.5625 194.064 38.1484C194.403 38.7279 194.95 39.0176 195.705 39.0176ZM202.17 41V39.291L203.537 38.998V32.4453L202.023 32.1523V30.4336H206.193L206.301 31.7422L206.32 31.9766C206.841 30.8177 207.622 30.2383 208.664 30.2383C208.833 30.2383 209.016 30.2513 209.211 30.2773C209.413 30.3034 209.595 30.3424 209.758 30.3945L209.455 33.0215L208.039 32.9434C207.635 32.9238 207.307 32.9922 207.053 33.1484C206.805 33.3047 206.584 33.5293 206.389 33.8223V38.998L207.756 39.291V41H202.17ZM215.471 41.2051C214.455 41.2051 213.57 40.9837 212.814 40.541C212.066 40.0918 211.483 39.4766 211.066 38.6953C210.656 37.9141 210.451 37.0221 210.451 36.0195V35.6289C210.451 34.5807 210.646 33.653 211.037 32.8457C211.428 32.0319 211.978 31.3939 212.688 30.9316C213.404 30.4629 214.247 30.2318 215.217 30.2383C216.643 30.2383 217.733 30.6582 218.488 31.498C219.243 32.3314 219.621 33.5033 219.621 35.0137V36.5664H213.41L213.391 36.625C213.443 37.3216 213.674 37.8945 214.084 38.3438C214.494 38.793 215.077 39.0176 215.832 39.0176C216.353 39.0176 216.838 38.9525 217.287 38.8223C217.743 38.6855 218.186 38.487 218.615 38.2266L219.387 39.9844C218.951 40.3359 218.4 40.6289 217.736 40.8633C217.079 41.0911 216.324 41.2051 215.471 41.2051ZM213.43 34.6816H216.955V34.4277C216.955 33.7897 216.822 33.2852 216.555 32.9141C216.294 32.5365 215.865 32.3477 215.266 32.3477C214.693 32.3477 214.257 32.5658 213.957 33.002C213.658 33.4316 213.472 33.9753 213.4 34.6328L213.43 34.6816Z" fill="black"/>
<defs>
<filter id="filter0_d" x="7.60791" y="21.9631" width="39.3557" height="49.3422" filterUnits="userSpaceOnUse" color-interpolation-filters="sRGB">
<feFlood flood-opacity="0" result="BackgroundImageFix"/>
<feColorMatrix in="SourceAlpha" type="matrix" values="0 0 0 0 0 0 0 0 0 0 0 0 0 0 0 0 0 0 127 0" result="hardAlpha"/>
<feOffset dy="4"/>
<feGaussianBlur stdDeviation="2"/>
<feComposite in2="hardAlpha" operator="out"/>
<feColorMatrix type="matrix" values="0 0 0 0 0 0 0 0 0 0 0 0 0 0 0 0 0 0 0.25 0"/>
<feBlend mode="normal" in2="BackgroundImageFix" result="effect1_dropShadow"/>
<feBlend mode="normal" in="SourceGraphic" in2="effect1_dropShadow" result="shape"/>
</filter>
<filter id="filter1_d" x="6.10083" y="26.1465" width="45.7885" height="39.321" filterUnits="userSpaceOnUse" color-interpolation-filters="sRGB">
<feFlood flood-opacity="0" result="BackgroundImageFix"/>
<feColorMatrix in="SourceAlpha" type="matrix" values="0 0 0 0 0 0 0 0 0 0 0 0 0 0 0 0 0 0 127 0" result="hardAlpha"/>
<feOffset dy="4"/>
<feGaussianBlur stdDeviation="2"/>
<feComposite in2="hardAlpha" operator="out"/>
<feColorMatrix type="matrix" values="0 0 0 0 0 0 0 0 0 0 0 0 0 0 0 0 0 0 0.25 0"/>
<feBlend mode="normal" in2="BackgroundImageFix" result="effect1_dropShadow"/>
<feBlend mode="normal" in="SourceGraphic" in2="effect1_dropShadow" result="shape"/>
</filter>
<linearGradient id="paint0_linear" x1="7.37079" y1="18.3107" x2="12.1876" y2="24.5682" gradientUnits="userSpaceOnUse">
<stop offset="0.0195076" stop-opacity="0.31"/>
<stop offset="0.437547"/>
</linearGradient>
<linearGradient id="paint1_linear" x1="53.9366" y1="23.1005" x2="47.5274" y2="27.8773" gradientUnits="userSpaceOnUse">
<stop offset="0.651042"/>
<stop offset="1" stop-opacity="0.76"/>
</linearGradient>
</defs>
</svg>
