<svg width="71" height="40" viewBox="0 0 71 40" fill="none" xmlns="http://www.w3.org/2000/svg">
<g filter="url(#filter0_d)">
<path d="M12.4102 20V18.7183L13.5454 18.4985V10.8447L12.4102 10.625V9.33594H16.7095L19.6172 16.77H19.6611L22.4736 9.33594H26.7803V10.625L25.6377 10.8447V18.4985L26.7803 18.7183V20H22.3638V18.7183L23.5576 18.4985V16.4551L23.5942 11.6431L23.5503 11.6357L20.3643 19.8535H18.7456L15.4863 11.7017L15.4424 11.709L15.5669 16.2354V18.4985L16.8267 18.7183V20H12.4102ZM31.3872 20.1538C30.6255 20.1538 29.9614 19.9878 29.395 19.6558C28.8335 19.3188 28.3965 18.8574 28.084 18.2715C27.7764 17.6855 27.6226 17.0166 27.6226 16.2646V15.9717C27.6226 15.1855 27.769 14.4897 28.062 13.8843C28.355 13.2739 28.7676 12.7954 29.2998 12.4487C29.8369 12.0972 30.4692 11.9238 31.1968 11.9287C32.2661 11.9287 33.084 12.2437 33.6504 12.8735C34.2168 13.4985 34.5 14.3774 34.5 15.5103V16.6748H29.8418L29.8271 16.7188C29.8662 17.2412 30.0396 17.6709 30.3472 18.0078C30.6548 18.3447 31.0918 18.5132 31.6582 18.5132C32.0488 18.5132 32.4126 18.4644 32.7495 18.3667C33.0913 18.2642 33.4233 18.1152 33.7456 17.9199L34.3242 19.2383C33.9971 19.502 33.5845 19.7217 33.0864 19.8975C32.5933 20.0684 32.0269 20.1538 31.3872 20.1538ZM29.8564 15.2612H32.5005V15.0708C32.5005 14.5923 32.4004 14.2139 32.2002 13.9355C32.0049 13.6523 31.6826 13.5107 31.2334 13.5107C30.8037 13.5107 30.4766 13.6743 30.252 14.0015C30.0273 14.3237 29.8882 14.7314 29.8345 15.2246L29.8564 15.2612ZM35.6499 20V18.7183L36.6753 18.4985V13.584L35.54 13.3643V12.0752H38.6675L38.748 13.0566L38.7627 13.2324C39.1533 12.3633 39.7393 11.9287 40.5205 11.9287C40.6475 11.9287 40.7842 11.9385 40.9307 11.958C41.082 11.9775 41.2188 12.0068 41.3408 12.0459L41.1138 14.0161L40.0518 13.9575C39.749 13.9429 39.5024 13.9941 39.312 14.1113C39.1265 14.2285 38.9604 14.397 38.814 14.6167V18.4985L39.8394 18.7183V20H35.6499ZM45.5596 20.1538C44.7979 20.1538 44.1387 19.9829 43.582 19.6411C43.0303 19.2993 42.6055 18.8281 42.3076 18.2275C42.0098 17.627 41.8608 16.936 41.8608 16.1548V15.9351C41.8608 15.1587 42.0122 14.4702 42.3149 13.8696C42.6177 13.2642 43.0449 12.7905 43.5967 12.4487C44.1484 12.1021 44.7979 11.9287 45.5449 11.9287C46.2529 11.9287 46.8657 12.041 47.3833 12.2656C47.9009 12.4854 48.3208 12.7417 48.6431 13.0347L48.6284 15.3052H47.0171L46.7314 13.8916C46.6143 13.7744 46.4653 13.6792 46.2847 13.606C46.104 13.5327 45.9209 13.4961 45.7354 13.4961C45.1494 13.4961 44.7124 13.7134 44.4243 14.1479C44.1411 14.5776 43.9995 15.1733 43.9995 15.9351V16.1548C43.9995 16.9702 44.1533 17.5684 44.4609 17.9492C44.7686 18.3252 45.1396 18.5132 45.5742 18.5132C45.9502 18.5132 46.2505 18.4155 46.4751 18.2202C46.7046 18.02 46.8633 17.7393 46.9512 17.3779H48.7749L48.7969 17.4219C48.6699 18.2666 48.3574 18.9331 47.8594 19.4214C47.3613 19.9097 46.5947 20.1538 45.5596 20.1538ZM49.6392 20V18.7183L50.6719 18.4985V10.083L49.5293 9.86328V8.57422H52.8032V13.0859C53.0522 12.7197 53.3599 12.4365 53.7261 12.2363C54.0972 12.0312 54.5171 11.9287 54.9858 11.9287C55.7817 11.9287 56.4116 12.1948 56.8755 12.7271C57.3442 13.2544 57.5786 14.0723 57.5786 15.1807V18.4985L58.604 18.7183V20H54.5171V18.7183L55.4399 18.4985V15.166C55.4399 14.5947 55.3325 14.1895 55.1177 13.9502C54.9028 13.7109 54.5879 13.5913 54.1729 13.5913C53.5723 13.5913 53.1157 13.8257 52.8032 14.2944V18.4985L53.7261 18.7183V20H49.6392Z" fill="white"/>
<path d="M12.4102 20H10.4102V22H12.4102V20ZM12.4102 18.7183L12.0301 16.7547L10.4102 17.0682V18.7183H12.4102ZM13.5454 18.4985L13.9255 20.4621L15.5454 20.1486V18.4985H13.5454ZM13.5454 10.8447H15.5454V9.19471L13.9255 8.88117L13.5454 10.8447ZM12.4102 10.625H10.4102V12.275L12.0301 12.5886L12.4102 10.625ZM12.4102 9.33594V7.33594H10.4102V9.33594H12.4102ZM16.7095 9.33594L18.5721 8.60742L18.0747 7.33594H16.7095V9.33594ZM19.6172 16.77L17.7546 17.4985L18.2519 18.77H19.6172V16.77ZM19.6611 16.77V18.77H21.0428L21.5317 17.4777L19.6611 16.77ZM22.4736 9.33594V7.33594H21.0919L20.603 8.62824L22.4736 9.33594ZM26.7803 9.33594H28.7803V7.33594H26.7803V9.33594ZM26.7803 10.625L27.158 12.589L28.7803 12.277V10.625H26.7803ZM25.6377 10.8447L25.26 8.88071L23.6377 9.1927V10.8447H25.6377ZM25.6377 18.4985H23.6377V20.1506L25.26 20.4625L25.6377 18.4985ZM26.7803 18.7183H28.7803V17.0662L27.158 16.7542L26.7803 18.7183ZM26.7803 20V22H28.7803V20H26.7803ZM22.3638 20H20.3638V22H22.3638V20ZM22.3638 18.7183L22.0018 16.7513L20.3638 17.0528V18.7183H22.3638ZM23.5576 18.4985L23.9196 20.4655L25.5576 20.164V18.4985H23.5576ZM23.5576 16.4551L21.5577 16.4399L21.5576 16.4475V16.4551H23.5576ZM23.5942 11.6431L25.5942 11.6583L25.6072 9.95097L23.923 9.67028L23.5942 11.6431ZM23.5503 11.6357L23.8791 9.66295L22.2738 9.39541L21.6855 10.9128L23.5503 11.6357ZM20.3643 19.8535V21.8535H21.7339L22.229 20.5765L20.3643 19.8535ZM18.7456 19.8535L16.8885 20.596L17.3913 21.8535H18.7456V19.8535ZM15.4863 11.7017L17.3434 10.9592L16.7457 9.46418L15.1575 9.72887L15.4863 11.7017ZM15.4424 11.709L15.1136 9.7362L13.3952 10.0226L13.4431 11.764L15.4424 11.709ZM15.5669 16.2354H17.5669V16.2078L17.5661 16.1804L15.5669 16.2354ZM15.5669 18.4985H13.5669V20.1799L15.2232 20.4688L15.5669 18.4985ZM16.8267 18.7183H18.8267V17.0369L17.1703 16.748L16.8267 18.7183ZM16.8267 20V22H18.8267V20H16.8267ZM14.4102 20V18.7183H10.4102V20H14.4102ZM12.7902 20.6818L13.9255 20.4621L13.1654 16.535L12.0301 16.7547L12.7902 20.6818ZM15.5454 18.4985V10.8447H11.5454V18.4985H15.5454ZM13.9255 8.88117L12.7902 8.66144L12.0301 12.5886L13.1654 12.8083L13.9255 8.88117ZM14.4102 10.625V9.33594H10.4102V10.625H14.4102ZM12.4102 11.3359H16.7095V7.33594H12.4102V11.3359ZM14.8469 10.0645L17.7546 17.4985L21.4798 16.0415L18.5721 8.60742L14.8469 10.0645ZM19.6172 18.77H19.6611V14.77H19.6172V18.77ZM21.5317 17.4777L24.3442 10.0436L20.603 8.62824L17.7905 16.0623L21.5317 17.4777ZM22.4736 11.3359H26.7803V7.33594H22.4736V11.3359ZM24.7803 9.33594V10.625H28.7803V9.33594H24.7803ZM26.4026 8.66099L25.26 8.88071L26.0154 12.8087L27.158 12.589L26.4026 8.66099ZM23.6377 10.8447V18.4985H27.6377V10.8447H23.6377ZM25.26 20.4625L26.4026 20.6823L27.158 16.7542L26.0154 16.5345L25.26 20.4625ZM24.7803 18.7183V20H28.7803V18.7183H24.7803ZM26.7803 18H22.3638V22H26.7803V18ZM24.3638 20V18.7183H20.3638V20H24.3638ZM22.7258 20.6852L23.9196 20.4655L23.1956 16.5316L22.0018 16.7513L22.7258 20.6852ZM25.5576 18.4985V16.4551H21.5576V18.4985H25.5576ZM25.5576 16.4703L25.5942 11.6583L21.5943 11.6278L21.5577 16.4399L25.5576 16.4703ZM23.923 9.67028L23.8791 9.66295L23.2215 13.6085L23.2654 13.6159L23.923 9.67028ZM21.6855 10.9128L18.4995 19.1305L22.229 20.5765L25.415 12.3587L21.6855 10.9128ZM20.3643 17.8535H18.7456V21.8535H20.3643V17.8535ZM20.6027 19.111L17.3434 10.9592L13.6293 12.4442L16.8885 20.596L20.6027 19.111ZM15.1575 9.72887L15.1136 9.7362L15.7712 13.6818L15.8151 13.6744L15.1575 9.72887ZM13.4431 11.764L13.5677 16.2903L17.5661 16.1804L17.4416 11.654L13.4431 11.764ZM13.5669 16.2354V18.4985H17.5669V16.2354H13.5669ZM15.2232 20.4688L16.483 20.6885L17.1703 16.748L15.9105 16.5283L15.2232 20.4688ZM14.8267 18.7183V20H18.8267V18.7183H14.8267ZM16.8267 18H12.4102V22H16.8267V18ZM29.395 19.6558L28.366 21.3707L28.3748 21.376L28.3836 21.3812L29.395 19.6558ZM28.084 18.2715L26.3132 19.2012L26.3193 19.2127L28.084 18.2715ZM28.062 13.8843L29.8623 14.7554L29.8651 14.7497L28.062 13.8843ZM29.2998 12.4487L30.3914 14.1246L30.3951 14.1221L29.2998 12.4487ZM31.1968 11.9287L31.1834 13.9287H31.1968V11.9287ZM33.6504 12.8735L32.1632 14.2108L32.1684 14.2166L33.6504 12.8735ZM34.5 16.6748V18.6748H36.5V16.6748H34.5ZM29.8418 16.6748V14.6748H28.4003L27.9444 16.0423L29.8418 16.6748ZM29.8271 16.7188L27.9298 16.0863L27.8028 16.4673L27.8327 16.8679L29.8271 16.7188ZM32.7495 18.3667L33.3063 20.2876L33.3153 20.285L33.3242 20.2824L32.7495 18.3667ZM33.7456 17.9199L35.577 17.1161L34.6601 15.027L32.709 16.2095L33.7456 17.9199ZM34.3242 19.2383L35.5793 20.7955L36.7704 19.8354L36.1556 18.4345L34.3242 19.2383ZM33.0864 19.8975L33.7413 21.7872L33.7521 21.7834L33.0864 19.8975ZM29.8564 15.2612L28.1415 16.2902L28.7241 17.2612H29.8564V15.2612ZM32.5005 15.2612V17.2612H34.5005V15.2612H32.5005ZM32.2002 13.9355L30.5538 15.071L30.565 15.0873L30.5766 15.1034L32.2002 13.9355ZM30.252 14.0015L31.8928 15.1451L31.9008 15.1335L30.252 14.0015ZM29.8345 15.2246L27.8462 15.0081L27.7734 15.6768L28.1195 16.2536L29.8345 15.2246ZM31.3872 18.1538C30.9234 18.1538 30.6199 18.0555 30.4065 17.9304L28.3836 21.3812C29.3029 21.9201 30.3276 22.1538 31.3872 22.1538V18.1538ZM30.424 17.9408C30.1779 17.7931 29.9931 17.6011 29.8487 17.3303L26.3193 19.2127C26.7998 20.1137 27.4891 20.8446 28.366 21.3707L30.424 17.9408ZM29.8548 17.3418C29.7171 17.0797 29.6226 16.7373 29.6226 16.2646H25.6226C25.6226 17.2959 25.8356 18.2914 26.3132 19.2012L29.8548 17.3418ZM29.6226 16.2646V15.9717H25.6226V16.2646H29.6226ZM29.6226 15.9717C29.6226 15.4366 29.7212 15.0471 29.8623 14.7554L26.2617 13.0132C25.8169 13.9324 25.6226 14.9345 25.6226 15.9717H29.6226ZM29.8651 14.7497C30.0104 14.4469 30.1864 14.2581 30.3914 14.1246L28.2082 10.7729C27.3487 11.3327 26.6995 12.1009 26.259 13.0188L29.8651 14.7497ZM30.3951 14.1221C30.5602 14.0141 30.7953 13.9261 31.1834 13.9287L31.2102 9.92876C30.1432 9.92159 29.1136 10.1803 28.2045 10.7753L30.3951 14.1221ZM31.1968 13.9287C31.8582 13.9287 32.071 14.1083 32.1632 14.2108L35.1376 11.5362C34.0969 10.379 32.674 9.92871 31.1968 9.92871V13.9287ZM32.1684 14.2166C32.3011 14.363 32.5 14.701 32.5 15.5103H36.5C36.5 14.0539 36.1324 12.634 35.1324 11.5305L32.1684 14.2166ZM32.5 15.5103V16.6748H36.5V15.5103H32.5ZM34.5 14.6748H29.8418V18.6748H34.5V14.6748ZM27.9444 16.0423L27.9298 16.0863L31.7245 17.3512L31.7392 17.3073L27.9444 16.0423ZM27.8327 16.8679C27.9 17.7673 28.2169 18.6408 28.8702 19.3564L31.8241 16.6593C31.8274 16.6628 31.8317 16.6683 31.8358 16.6748C31.8399 16.6813 31.8415 16.6853 31.8412 16.6846C31.8411 16.6843 31.8277 16.6516 31.8216 16.5696L27.8327 16.8679ZM28.8702 19.3564C29.645 20.205 30.6756 20.5132 31.6582 20.5132V16.5132C31.5709 16.5132 31.5715 16.5001 31.625 16.5207C31.6521 16.5311 31.6872 16.5482 31.7253 16.5741C31.7635 16.6 31.797 16.6295 31.8241 16.6593L28.8702 19.3564ZM31.6582 20.5132C32.2161 20.5132 32.7692 20.4433 33.3063 20.2876L32.1927 16.4458C32.056 16.4854 31.8815 16.5132 31.6582 16.5132V20.5132ZM33.3242 20.2824C33.8368 20.1286 34.3234 19.9084 34.7822 19.6303L32.709 16.2095C32.5233 16.3221 32.3458 16.3998 32.1748 16.451L33.3242 20.2824ZM31.9142 18.7237L32.4928 20.0421L36.1556 18.4345L35.577 17.1161L31.9142 18.7237ZM33.0692 17.6811C32.9572 17.7714 32.7577 17.8926 32.4208 18.0115L33.7521 21.7834C34.4112 21.5508 35.037 21.2325 35.5793 20.7955L33.0692 17.6811ZM32.4316 18.0077C32.1904 18.0913 31.8524 18.1538 31.3872 18.1538V22.1538C32.2013 22.1538 32.9961 22.0454 33.7413 21.7872L32.4316 18.0077ZM29.8564 17.2612H32.5005V13.2612H29.8564V17.2612ZM34.5005 15.2612V15.0708H30.5005V15.2612H34.5005ZM34.5005 15.0708C34.5005 14.3344 34.3485 13.4972 33.8238 12.7677L30.5766 15.1034C30.5155 15.0185 30.4955 14.9531 30.4919 14.9395C30.4893 14.9297 30.5005 14.9674 30.5005 15.0708H34.5005ZM33.8466 12.8001C33.1671 11.8147 32.1171 11.5107 31.2334 11.5107V15.5107C31.2546 15.5107 31.1596 15.5148 31.0075 15.448C30.8372 15.3732 30.6719 15.2423 30.5538 15.071L33.8466 12.8001ZM31.2334 11.5107C30.209 11.5107 29.2358 11.948 28.6032 12.8695L31.9008 15.1335C31.838 15.2248 31.725 15.3399 31.5602 15.4223C31.4014 15.5017 31.275 15.5107 31.2334 15.5107V11.5107ZM28.6112 12.8579C28.1509 13.5182 27.9269 14.2675 27.8462 15.0081L31.8227 15.4412C31.8495 15.1954 31.9038 15.1292 31.8927 15.1451L28.6112 12.8579ZM28.1195 16.2536L28.1415 16.2902L31.5714 14.2322L31.5495 14.1956L28.1195 16.2536ZM35.6499 20H33.6499V22H35.6499V20ZM35.6499 18.7183L35.2308 16.7627L33.6499 17.1014V18.7183H35.6499ZM36.6753 18.4985L37.0944 20.4541L38.6753 20.1154V18.4985H36.6753ZM36.6753 13.584H38.6753V11.934L37.0553 11.6204L36.6753 13.584ZM35.54 13.3643H33.54V15.0143L35.16 15.3278L35.54 13.3643ZM35.54 12.0752V10.0752H33.54V12.0752H35.54ZM38.6675 12.0752L40.6608 11.9116L40.51 10.0752H38.6675V12.0752ZM38.748 13.0566L36.7548 13.2203L36.755 13.2227L38.748 13.0566ZM38.7627 13.2324L36.7696 13.3985L37.4126 21.1151L40.5869 14.0523L38.7627 13.2324ZM40.9307 11.958L40.6663 13.9405L40.6747 13.9416L40.9307 11.958ZM41.3408 12.0459L43.3277 12.2749L43.5158 10.642L41.9504 10.1411L41.3408 12.0459ZM41.1138 14.0161L41.0036 16.0131L42.8849 16.1169L43.1006 14.2451L41.1138 14.0161ZM40.0518 13.9575L40.1619 11.9605L40.1484 11.9599L40.0518 13.9575ZM39.312 14.1113L38.2638 12.408L38.2539 12.4141L38.244 12.4204L39.312 14.1113ZM38.814 14.6167L37.1499 13.5073L36.814 14.0111V14.6167H38.814ZM38.814 18.4985H36.814V20.1154L38.3949 20.4541L38.814 18.4985ZM39.8394 18.7183H41.8394V17.1014L40.2584 16.7627L39.8394 18.7183ZM39.8394 20V22H41.8394V20H39.8394ZM37.6499 20V18.7183H33.6499V20H37.6499ZM36.069 20.6739L37.0944 20.4541L36.2562 16.5429L35.2308 16.7627L36.069 20.6739ZM38.6753 18.4985V13.584H34.6753V18.4985H38.6753ZM37.0553 11.6204L35.9201 11.4007L35.16 15.3278L36.2952 15.5475L37.0553 11.6204ZM37.54 13.3643V12.0752H33.54V13.3643H37.54ZM35.54 14.0752H38.6675V10.0752H35.54V14.0752ZM36.6742 12.2388L36.7548 13.2203L40.7413 12.893L40.6608 11.9116L36.6742 12.2388ZM36.755 13.2227L36.7696 13.3985L40.7558 13.0663L40.7411 12.8905L36.755 13.2227ZM40.5869 14.0523C40.6837 13.8369 40.7398 13.8215 40.6865 13.861C40.6588 13.8816 40.6201 13.9025 40.577 13.9162C40.5354 13.9295 40.5125 13.9287 40.5205 13.9287V9.92871C39.7331 9.92871 38.9664 10.1567 38.3037 10.6482C37.6645 11.1223 37.2323 11.7588 36.9385 12.4125L40.5869 14.0523ZM40.5205 13.9287C40.5461 13.9287 40.5936 13.9308 40.6663 13.9405L41.195 9.97555C40.9747 9.94618 40.7488 9.92871 40.5205 9.92871V13.9287ZM40.6747 13.9416C40.728 13.9484 40.7438 13.9547 40.7313 13.9507L41.9504 10.1411C41.6937 10.0589 41.436 10.0066 41.1866 9.97445L40.6747 13.9416ZM39.354 11.8169L39.1269 13.7871L43.1006 14.2451L43.3277 12.2749L39.354 11.8169ZM41.2239 12.0192L40.1619 11.9606L39.9416 15.9545L41.0036 16.0131L41.2239 12.0192ZM40.1484 11.9599C39.583 11.9325 38.9 12.0165 38.2638 12.408L40.3602 15.8146C40.1049 15.9718 39.9151 15.9532 39.9551 15.9552L40.1484 11.9599ZM38.244 12.4204C37.778 12.7147 37.421 13.1006 37.1499 13.5073L40.4781 15.7261C40.4999 15.6933 40.475 15.7423 40.38 15.8023L38.244 12.4204ZM36.814 14.6167V18.4985H40.814V14.6167H36.814ZM38.3949 20.4541L39.4203 20.6739L40.2584 16.7627L39.233 16.5429L38.3949 20.4541ZM37.8394 18.7183V20H41.8394V18.7183H37.8394ZM39.8394 18H35.6499V22H39.8394V18ZM43.582 19.6411L42.5288 21.3413L42.5355 21.3455L43.582 19.6411ZM42.3149 13.8696L44.1009 14.7699L44.1038 14.7641L42.3149 13.8696ZM43.5967 12.4487L44.6499 14.149L44.6607 14.1422L43.5967 12.4487ZM47.3833 12.2656L46.5871 14.1003L46.5944 14.1035L46.6018 14.1066L47.3833 12.2656ZM48.6431 13.0347L50.643 13.0476L50.6488 12.1551L49.9884 11.5548L48.6431 13.0347ZM48.6284 15.3052V17.3052H50.6156L50.6284 15.3181L48.6284 15.3052ZM47.0171 15.3052L45.0567 15.7013L45.3808 17.3052H47.0171V15.3052ZM46.7314 13.8916L48.6918 13.4955L48.5723 12.904L48.1457 12.4774L46.7314 13.8916ZM44.4243 14.1479L42.7573 13.0429L42.7544 13.0473L44.4243 14.1479ZM44.4609 17.9492L42.905 19.2059L42.913 19.2157L44.4609 17.9492ZM46.4751 18.2202L47.7875 19.7294L47.7898 19.7274L46.4751 18.2202ZM46.9512 17.3779V15.3779H45.3793L45.0078 16.9052L46.9512 17.3779ZM48.7749 17.3779L50.5638 16.4835L50.011 15.3779H48.7749V17.3779ZM48.7969 17.4219L50.7747 17.7191L50.8687 17.0934L50.5857 16.5274L48.7969 17.4219ZM45.5596 18.1538C45.105 18.1538 44.8212 18.055 44.6286 17.9368L42.5355 21.3455C43.4562 21.9108 44.4907 22.1538 45.5596 22.1538V18.1538ZM44.6353 17.9409C44.4113 17.8022 44.2373 17.617 44.0994 17.3389L40.5159 19.1161C40.9737 20.0393 41.6492 20.7965 42.5288 21.3413L44.6353 17.9409ZM44.0994 17.3389C43.9594 17.0568 43.8608 16.6786 43.8608 16.1548H39.8608C39.8608 17.1934 40.0601 18.1971 40.5159 19.1161L44.0994 17.3389ZM43.8608 16.1548V15.9351H39.8608V16.1548H43.8608ZM43.8608 15.9351C43.8608 15.423 43.9592 15.051 44.1009 14.7699L40.529 12.9694C40.0653 13.8894 39.8608 14.8944 39.8608 15.9351H43.8608ZM44.1038 14.7641C44.2482 14.4752 44.4272 14.2869 44.6499 14.1489L42.5435 10.7485C41.6626 11.2942 40.9871 12.0531 40.5261 12.9752L44.1038 14.7641ZM44.6607 14.1422C44.8491 14.0238 45.1179 13.9287 45.5449 13.9287V9.92871C44.4778 9.92871 43.4478 10.1803 42.5326 10.7553L44.6607 14.1422ZM45.5449 13.9287C46.0465 13.9287 46.3761 14.0087 46.5871 14.1003L48.1795 10.4309C47.3553 10.0733 46.4593 9.92871 45.5449 9.92871V13.9287ZM46.6018 14.1066C46.9695 14.2627 47.1822 14.4095 47.2977 14.5145L49.9884 11.5548C49.4594 11.0739 48.8322 10.708 48.1648 10.4247L46.6018 14.1066ZM46.6431 13.0218L46.6285 15.2923L50.6284 15.3181L50.643 13.0476L46.6431 13.0218ZM48.6284 13.3052H47.0171V17.3052H48.6284V13.3052ZM48.9775 14.909L48.6918 13.4955L44.7711 14.2877L45.0567 15.7013L48.9775 14.909ZM48.1457 12.4774C47.8088 12.1406 47.4217 11.9088 47.0361 11.7525L45.5333 15.4594C45.5089 15.4496 45.4197 15.4083 45.3172 15.3058L48.1457 12.4774ZM47.0361 11.7525C46.629 11.5874 46.1914 11.4961 45.7354 11.4961V15.4961C45.6504 15.4961 45.579 15.478 45.5333 15.4594L47.0361 11.7525ZM45.7354 11.4961C44.5763 11.4961 43.4667 11.9728 42.7573 13.0429L46.0913 15.253C46.0764 15.2755 46.0488 15.3111 46.0054 15.3501C45.9614 15.3897 45.9111 15.4238 45.8586 15.4499C45.7503 15.5037 45.6901 15.4961 45.7354 15.4961V11.4961ZM42.7544 13.0473C42.1757 13.9254 41.9995 14.9591 41.9995 15.9351H45.9995C45.9995 15.3876 46.1066 15.2299 46.0942 15.2486L42.7544 13.0473ZM41.9995 15.9351V16.1548H45.9995V15.9351H41.9995ZM41.9995 16.1548C41.9995 17.148 42.1733 18.2999 42.9051 19.2059L46.0168 16.6925C46.0834 16.775 46.0755 16.8089 46.0519 16.7169C46.0277 16.6229 45.9995 16.4447 45.9995 16.1548H41.9995ZM42.913 19.2157C43.5499 19.9941 44.4642 20.5132 45.5742 20.5132V16.5132C45.6565 16.5132 45.7666 16.5337 45.8738 16.5881C45.9748 16.6392 46.0156 16.691 46.0089 16.6827L42.913 19.2157ZM45.5742 20.5132C46.3016 20.5132 47.111 20.3177 47.7875 19.7294L45.1627 16.711C45.2652 16.6219 45.3735 16.567 45.4629 16.538C45.5464 16.5108 45.591 16.5132 45.5742 16.5132V20.5132ZM47.7898 19.7274C48.394 19.2004 48.7309 18.5233 48.8945 17.8506L45.0078 16.9052C45.0009 16.9336 45.0012 16.9176 45.0251 16.8754C45.0506 16.8302 45.0945 16.7705 45.1604 16.7131L47.7898 19.7274ZM46.9512 19.3779H48.7749V15.3779H46.9512V19.3779ZM46.986 18.2724L47.008 18.3163L50.5857 16.5274L50.5638 16.4835L46.986 18.2724ZM46.8191 17.1246C46.7419 17.6384 46.5825 17.8723 46.4592 17.9932L49.2595 20.8495C50.1323 19.9939 50.598 18.8948 50.7747 17.7191L46.8191 17.1246ZM46.4592 17.9932C46.459 17.9935 46.4575 17.9949 46.454 17.9976C46.4504 18.0003 46.4438 18.005 46.4331 18.0111C46.412 18.0234 46.3716 18.0435 46.304 18.065C46.1639 18.1096 45.927 18.1538 45.5596 18.1538V22.1538C46.8675 22.1538 48.2403 21.8488 49.2595 20.8495L46.4592 17.9932ZM49.6392 20H47.6392V22H49.6392V20ZM49.6392 18.7183L49.2229 16.762L47.6392 17.099V18.7183H49.6392ZM50.6719 18.4985L51.0881 20.4547L52.6719 20.1178V18.4985H50.6719ZM50.6719 10.083H52.6719V8.43098L51.0496 8.11899L50.6719 10.083ZM49.5293 9.86328H47.5293V11.5153L49.1516 11.8273L49.5293 9.86328ZM49.5293 8.57422V6.57422H47.5293V8.57422H49.5293ZM52.8032 8.57422H54.8032V6.57422H52.8032V8.57422ZM52.8032 13.0859H50.8032V19.5839L54.4571 14.2106L52.8032 13.0859ZM53.7261 12.2363L54.6854 13.9912L54.6934 13.9868L53.7261 12.2363ZM56.8755 12.7271L55.3678 14.0411L55.3742 14.0485L55.3807 14.0558L56.8755 12.7271ZM57.5786 18.4985H55.5786V20.1154L57.1596 20.4541L57.5786 18.4985ZM58.604 18.7183H60.604V17.1014L59.0231 16.7627L58.604 18.7183ZM58.604 20V22H60.604V20H58.604ZM54.5171 20H52.5171V22H54.5171V20ZM54.5171 18.7183L54.0538 16.7726L52.5171 17.1385V18.7183H54.5171ZM55.4399 18.4985L55.9032 20.4441L57.4399 20.0783V18.4985H55.4399ZM52.8032 14.2944L51.1391 13.185L50.8032 13.6889V14.2944H52.8032ZM52.8032 18.4985H50.8032V20.0783L52.34 20.4441L52.8032 18.4985ZM53.7261 18.7183H55.7261V17.1385L54.1893 16.7726L53.7261 18.7183ZM53.7261 20V22H55.7261V20H53.7261ZM51.6392 20V18.7183H47.6392V20H51.6392ZM50.0554 20.6745L51.0881 20.4547L50.2557 16.5423L49.2229 16.762L50.0554 20.6745ZM52.6719 18.4985V10.083H48.6719V18.4985H52.6719ZM51.0496 8.11899L49.907 7.89927L49.1516 11.8273L50.2942 12.047L51.0496 8.11899ZM51.5293 9.86328V8.57422H47.5293V9.86328H51.5293ZM49.5293 10.5742H52.8032V6.57422H49.5293V10.5742ZM50.8032 8.57422V13.0859H54.8032V8.57422H50.8032ZM54.4571 14.2106C54.539 14.0901 54.6143 14.0301 54.6854 13.9912L52.7667 10.4814C52.1054 10.843 51.5655 11.3494 51.1494 11.9613L54.4571 14.2106ZM54.6934 13.9868C54.738 13.9622 54.819 13.9287 54.9858 13.9287V9.92871C54.2152 9.92871 53.4563 10.1003 52.7587 10.4858L54.6934 13.9868ZM54.9858 13.9287C55.2858 13.9287 55.3346 14.003 55.3678 14.0411L58.3832 11.413C57.4887 10.3866 56.2777 9.92871 54.9858 9.92871V13.9287ZM55.3807 14.0558C55.3822 14.0575 55.5786 14.2955 55.5786 15.1807H59.5786C59.5786 13.8491 59.3063 12.4513 58.3703 11.3983L55.3807 14.0558ZM55.5786 15.1807V18.4985H59.5786V15.1807H55.5786ZM57.1596 20.4541L58.1849 20.6739L59.0231 16.7627L57.9977 16.5429L57.1596 20.4541ZM56.604 18.7183V20H60.604V18.7183H56.604ZM58.604 18H54.5171V22H58.604V18ZM56.5171 20V18.7183H52.5171V20H56.5171ZM54.9803 20.6639L55.9032 20.4441L54.9767 16.5529L54.0538 16.7726L54.9803 20.6639ZM57.4399 18.4985V15.166H53.4399V18.4985H57.4399ZM57.4399 15.166C57.4399 14.4481 57.3251 13.415 56.6058 12.6139L53.6296 15.2864C53.4712 15.1101 53.4297 14.9596 53.4261 14.946C53.4235 14.9362 53.4275 14.9481 53.4318 14.9874C53.4361 15.0263 53.4399 15.0848 53.4399 15.166H57.4399ZM56.6058 12.6139C55.9083 11.8373 54.9802 11.5913 54.1729 11.5913V15.5913C54.1921 15.5913 54.1254 15.5945 54.0102 15.5507C53.8842 15.5028 53.7455 15.4155 53.6296 15.2864L56.6058 12.6139ZM54.1729 11.5913C52.9561 11.5913 51.8508 12.1175 51.1391 13.185L54.4673 15.4038C54.463 15.4103 54.4465 15.4333 54.4141 15.4629C54.381 15.4931 54.3399 15.5225 54.2934 15.5463C54.1946 15.5971 54.1362 15.5913 54.1729 15.5913V11.5913ZM50.8032 14.2944V18.4985H54.8032V14.2944H50.8032ZM52.34 20.4441L53.2628 20.6639L54.1893 16.7726L53.2665 16.5529L52.34 20.4441ZM51.7261 18.7183V20H55.7261V18.7183H51.7261ZM53.7261 18H49.6392V22H53.7261V18Z" fill="black"/>
</g>
<path d="M5 30.9998L65.8669 30.9998" stroke="black" stroke-opacity="0.17" stroke-width="4"/>
<defs>
<filter id="filter0_d" x="0.410156" y="0.574219" width="70.1938" height="35.5796" filterUnits="userSpaceOnUse" color-interpolation-filters="sRGB">
<feFlood flood-opacity="0" result="BackgroundImageFix"/>
<feColorMatrix in="SourceAlpha" type="matrix" values="0 0 0 0 0 0 0 0 0 0 0 0 0 0 0 0 0 0 127 0" result="hardAlpha"/>
<feOffset dy="4"/>
<feGaussianBlur stdDeviation="5"/>
<feComposite in2="hardAlpha" operator="out"/>
<feColorMatrix type="matrix" values="0 0 0 0 0 0 0 0 0 0 0 0 0 0 0 0 0 0 0.25 0"/>
<feBlend mode="normal" in2="BackgroundImageFix" result="effect1_dropShadow"/>
<feBlend mode="normal" in="SourceGraphic" in2="effect1_dropShadow" result="shape"/>
</filter>
</defs>
</svg>
