<svg width="31" height="48" viewBox="0 0 31 48" fill="none" xmlns="http://www.w3.org/2000/svg">
<path d="M10.3955 35V34.3848L11.1914 34.248V28.6475L10.3955 28.5107V27.8906H12.9492V28.5107L12.1533 28.6475V31.1035H15.5518V28.6475L14.7559 28.5107V27.8906H17.3096V28.5107L16.5137 28.6475V34.248L17.3096 34.3848V35H14.7559V34.3848L15.5518 34.248V31.8604H12.1533V34.248L12.9492 34.3848V35H10.3955ZM21.3135 35.1025C20.6006 35.1025 20.0049 34.9463 19.5264 34.6338C19.0511 34.3213 18.693 33.8932 18.4521 33.3496C18.2145 32.806 18.0957 32.1891 18.0957 31.499V31.3965C18.0957 30.6999 18.221 30.0814 18.4717 29.541C18.7223 28.9974 19.082 28.5693 19.5508 28.2568C20.0195 27.9443 20.5794 27.7881 21.2305 27.7881C21.6895 27.7881 22.1094 27.8597 22.4902 28.0029C22.8711 28.1462 23.1868 28.3285 23.4375 28.5498V30.083H22.6709L22.5684 28.96C22.2396 28.7093 21.792 28.584 21.2256 28.584C20.7601 28.584 20.3662 28.7044 20.0439 28.9453C19.7217 29.1829 19.4775 29.5117 19.3115 29.9316C19.1455 30.3516 19.0625 30.8366 19.0625 31.3867V31.499C19.0625 32.3942 19.2594 33.0892 19.6533 33.584C20.0472 34.0755 20.612 34.3213 21.3477 34.3213C21.5755 34.3213 21.7985 34.2936 22.0166 34.2383C22.2347 34.1829 22.4154 34.1113 22.5586 34.0234L22.666 33.0322H23.418V34.5752C23.151 34.7412 22.832 34.8714 22.4609 34.9658C22.0898 35.057 21.7074 35.1025 21.3135 35.1025Z" fill="black"/>
<path d="M10 25V7.5C10 3.91015 12.9101 1 16.5 1V1C20.0899 1 23 3.91015 23 7.5V25" stroke="black"/>
<path d="M2.5 38V14.5H30.5V38C30.5 43.2467 26.2467 47.5 21 47.5H12C6.7533 47.5 2.5 43.2467 2.5 38Z" stroke="black"/>
</svg>
